# xmcd CD database file
#
# Track frame offsets:
#	150
#	21424
#	58822
#	109379
#	140407
#	167113
#	203893
#	228079
#	240977
#	258849
#	284634
#	299658
#
# Disc length: 4680 seconds
#
# Revision: 1
# Processed by: cddbd v1.5.2PL0 Copyright (c) Steve Scherf et al.
# Submitted via: cdripper 1,0,33,916
#
DISCID=b812460c
DTITLE=Davis Miles - My Old Flame - CD 2
DYEAR=1900
DGENRE=Jazz
TTITLE0=Solar
TTITLE1=Blue'n boogie
TTITLE2=Bag's groove
TTITLE3=Vierd blues
TTITLE4=Round about midnight
TTITLE5=If I were a bell
TTITLE6=Blues for Pablo
TTITLE7=Florence sur les Champs Elysées
TTITLE8=Dîner au motel
TTITLE9=Milestones
TTITLE10=Summertime
TTITLE11=All blues
EXTD=
EXTT0=
EXTT1=
EXTT2=
EXTT3=
EXTT4=
EXTT5=
EXTT6=
EXTT7=
EXTT8=
EXTT9=
EXTT10=
EXTT11=
PLAYORDER=
